# Blender v2.79 (sub 0) OBJ File: 'carLeftDoor.blend'
# www.blender.org
mtllib carLeftDoor.mtl
o Cube.005
v -1.339073 -10.236536 0.792539
v -1.339073 -9.997078 0.792539
v -1.339073 -10.236536 0.553081
v -1.339073 -9.997078 0.553081
v -1.099615 -10.236536 0.792539
v -1.099615 -9.997078 0.792539
v -1.099615 -10.236536 0.553081
v -1.099615 -9.997078 0.553081
vn -1.0000 0.0000 0.0000
vn 0.0000 0.0000 -1.0000
vn 1.0000 0.0000 0.0000
vn 0.0000 0.0000 1.0000
vn 0.0000 -1.0000 0.0000
vn 0.0000 1.0000 0.0000
usemtl None
s off
f 1//1 2//1 4//1 3//1
f 3//2 4//2 8//2 7//2
f 7//3 8//3 6//3 5//3
f 5//4 6//4 2//4 1//4
f 3//5 7//5 5//5 1//5
f 8//6 4//6 2//6 6//6
o Cube.004
v 0.021790 0.510952 -0.088521
v 0.021790 0.750410 -0.088521
v 0.021790 0.510952 -0.327979
v 0.021790 0.750410 -0.327979
v 0.261248 0.510952 -0.088521
v 0.261248 0.750410 -0.088521
v 0.261248 0.510952 -0.327979
v 0.261248 0.750410 -0.327979
vt 0.000000 0.000000
vt 0.000000 0.000000
vt 0.000000 0.000000
vt 0.000000 0.000000
vt 0.000100 0.999900
vt 0.000100 0.000100
vt 0.999900 0.000100
vt 0.999900 0.999900
vt 0.000000 0.000000
vt 0.000000 0.000000
vt 0.000000 0.000000
vt 0.000000 0.000000
vn -1.0000 0.0000 0.0000
vn 0.0000 0.0000 -1.0000
vn 1.0000 0.0000 0.0000
vn 0.0000 0.0000 1.0000
vn 0.0000 -1.0000 0.0000
vn 0.0000 1.0000 0.0000
usemtl Material.003
s off
f 9/1/7 10/2/7 12/3/7 11/4/7
f 11/5/8 12/6/8 16/7/8 15/8/8
f 15/9/9 16/10/9 14/11/9 13/12/9
f 13/12/10 14/11/10 10/2/10 9/1/10
f 11/4/11 15/9/11 13/12/11 9/1/11
f 16/10/12 12/3/12 10/2/12 14/11/12
o Cube.003
v -0.069276 -0.378317 0.018847
v -0.069276 0.903210 0.018847
v -0.069276 -0.378317 -1.762562
v -0.069276 0.903210 -1.762562
v 0.033287 -0.378317 0.018847
v 0.033287 0.903210 0.018847
v 0.033287 -0.378317 -1.762562
v 0.033287 0.903210 -1.762562
vt 0.000000 0.000000
vt 0.000000 0.000000
vt 0.000000 0.000000
vt 0.000000 0.000000
vt 0.000000 0.000000
vt 0.000000 0.000000
vt 0.000000 0.000000
vt 0.000000 0.000000
vt 0.999915 0.000085
vt 0.999915 0.719352
vt 0.000085 0.719352
vt 0.000085 0.000085
vn -1.0000 0.0000 0.0000
vn 0.0000 0.0000 -1.0000
vn 0.0000 0.0000 1.0000
vn 0.0000 -1.0000 0.0000
vn 0.0000 1.0000 0.0000
vn 1.0000 0.0000 0.0000
usemtl Material
s off
f 17/13/13 18/14/13 20/15/13 19/16/13
f 19/16/14 20/15/14 24/17/14 23/18/14
f 21/19/15 22/20/15 18/14/15 17/13/15
f 19/16/16 23/18/16 21/19/16 17/13/16
f 24/17/17 20/15/17 18/14/17 22/20/17
usemtl Material_door.png
f 23/21/18 24/22/18 22/23/18 21/24/18
