# Blender v2.79 (sub 0) OBJ File: 'wheelBackLeft.blend'
# www.blender.org
mtllib wheelBackLeft.mtl
o Cylinder.001
v 0.619853 -0.599039 -1.374810
v 1.920899 -0.554242 -1.410715
v 0.621948 -0.561997 -1.252671
v 1.922994 -0.517201 -1.288576
v 0.622985 -0.501852 -1.140085
v 1.924030 -0.457055 -1.175990
v 0.622922 -0.420913 -1.041378
v 1.923968 -0.376117 -1.077283
v 0.621763 -0.322292 -0.960342
v 1.922808 -0.277495 -0.996247
v 0.619551 -0.209778 -0.900093
v 1.920597 -0.164982 -0.935998
v 0.616373 -0.087695 -0.862946
v 1.917419 -0.042899 -0.898851
v 0.612350 0.039265 -0.850327
v 1.913396 0.084061 -0.886232
v 0.607637 0.166223 -0.862723
v 1.908682 0.211019 -0.898628
v 0.602414 0.288300 -0.899656
v 1.903460 0.333097 -0.935561
v 0.596883 0.400806 -0.959707
v 1.897929 0.445602 -0.995612
v 0.591256 0.499416 -1.040570
v 1.892302 0.544212 -1.076475
v 0.585750 0.580340 -1.139135
v 1.886796 0.625136 -1.175040
v 0.580576 0.640470 -1.251616
v 1.881621 0.685266 -1.287521
v 0.575932 0.677494 -1.373689
v 1.876978 0.722290 -1.409594
v 0.571998 0.689989 -1.500664
v 1.873043 0.734785 -1.536569
v 0.568924 0.677476 -1.627661
v 1.869969 0.722272 -1.663566
v 0.566828 0.640434 -1.749799
v 1.867874 0.685230 -1.785704
v 0.565792 0.580289 -1.862386
v 1.866838 0.625085 -1.898290
v 0.565855 0.499350 -1.961093
v 1.866901 0.544146 -1.996998
v 0.567014 0.400728 -2.042128
v 1.868060 0.445525 -2.078033
v 0.569226 0.288214 -2.102377
v 1.870271 0.333010 -2.138282
v 0.572404 0.166132 -2.139525
v 1.873450 0.210928 -2.175430
v 0.576427 0.039172 -2.152143
v 1.877473 0.083968 -2.188048
v 0.581140 -0.087787 -2.139748
v 1.882186 -0.042990 -2.175653
v 0.586363 -0.209864 -2.102814
v 1.887408 -0.165068 -2.138719
v 0.591894 -0.322369 -2.042763
v 1.892939 -0.277573 -2.078667
v 0.597520 -0.420979 -1.961900
v 1.898566 -0.376183 -1.997805
v 0.603027 -0.501904 -1.863335
v 1.904073 -0.457108 -1.899240
v 0.608201 -0.562033 -1.750854
v 1.909247 -0.517237 -1.786759
v 0.612845 -0.599057 -1.628781
v 1.913891 -0.554261 -1.664685
v 0.616779 -0.611552 -1.501806
v 1.917825 -0.566756 -1.537711
vn 0.0409 -0.9564 0.2893
vn 0.0433 -0.8814 0.4704
vn 0.0441 -0.7725 0.6335
vn 0.0431 -0.6340 0.7722
vn 0.0405 -0.4711 0.8812
vn 0.0364 -0.2900 0.9563
vn 0.0308 -0.0979 0.9947
vn 0.0241 0.0980 0.9949
vn 0.0164 0.2902 0.9568
vn 0.0081 0.4712 0.8820
vn -0.0005 0.6341 0.7733
vn -0.0091 0.7726 0.6348
vn -0.0173 0.8814 0.4720
vn -0.0249 0.9564 0.2910
vn -0.0315 0.9946 0.0989
vn -0.0369 0.9946 -0.0971
vn -0.0409 0.9564 -0.2893
vn -0.0433 0.8814 -0.4704
vn -0.0441 0.7725 -0.6335
vn -0.0431 0.6340 -0.7722
vn -0.0405 0.4711 -0.8812
vn -0.0364 0.2900 -0.9563
vn -0.0308 0.0979 -0.9947
vn -0.0241 -0.0980 -0.9949
vn -0.0164 -0.2902 -0.9568
vn -0.0081 -0.4712 -0.8820
vn 0.0005 -0.6341 -0.7733
vn 0.0091 -0.7726 -0.6348
vn 0.0173 -0.8814 -0.4720
vn 0.0249 -0.9564 -0.2910
vn 0.9990 0.0344 -0.0276
vn 0.0315 -0.9946 -0.0989
vn 0.0369 -0.9946 0.0971
vn -0.9990 -0.0344 0.0276
usemtl Material.001
s off
f 1//1 2//1 4//1 3//1
f 3//2 4//2 6//2 5//2
f 5//3 6//3 8//3 7//3
f 7//4 8//4 10//4 9//4
f 9//5 10//5 12//5 11//5
f 11//6 12//6 14//6 13//6
f 13//7 14//7 16//7 15//7
f 15//8 16//8 18//8 17//8
f 17//9 18//9 20//9 19//9
f 19//10 20//10 22//10 21//10
f 21//11 22//11 24//11 23//11
f 23//12 24//12 26//12 25//12
f 25//13 26//13 28//13 27//13
f 27//14 28//14 30//14 29//14
f 29//15 30//15 32//15 31//15
f 31//16 32//16 34//16 33//16
f 33//17 34//17 36//17 35//17
f 35//18 36//18 38//18 37//18
f 37//19 38//19 40//19 39//19
f 39//20 40//20 42//20 41//20
f 41//21 42//21 44//21 43//21
f 43//22 44//22 46//22 45//22
f 45//23 46//23 48//23 47//23
f 47//24 48//24 50//24 49//24
f 49//25 50//25 52//25 51//25
f 51//26 52//26 54//26 53//26
f 53//27 54//27 56//27 55//27
f 55//28 56//28 58//28 57//28
f 57//29 58//29 60//29 59//29
f 59//30 60//30 62//30 61//30
f 4//31 2//31 64//31 62//31 60//31 58//31 56//31 54//31 52//31 50//31 48//31 46//31 44//31 42//31 40//31 38//31 36//31 34//31 32//31 30//31 28//31 26//31 24//31 22//31 20//31 18//31 16//31 14//31 12//31 10//31 8//31 6//31
f 61//32 62//32 64//32 63//32
f 63//33 64//33 2//33 1//33
f 1//34 3//34 5//34 7//34 9//34 11//34 13//34 15//34 17//34 19//34 21//34 23//34 25//34 27//34 29//34 31//34 33//34 35//34 37//34 39//34 41//34 43//34 45//34 47//34 49//34 51//34 53//34 55//34 57//34 59//34 61//34 63//34
